# xmcd
#
# Track frame offsets: 
#        150
#        12367
#        26040
#        35630
#        47570
#        64552
#        79515
#        92292
#        105645
#        120662
#        133700
#        142410
#        157605
#
# Disc length: 2301 seconds
#
# Revision: 0
# Processed by: cddbd v1.5.1PL0 Copyright (c) Steve Scherf et al.
# Submitted via: ExactAudioCopy v0.95a5
#
DISCID=9f08fb0d
DTITLE=Dix Bruce and Jim Nunally - The Way Things Are
DYEAR=1999
DGENRE=Folk
TTITLE0=I Get Blue (Dix Bruce)
TTITLE1=Folsom Prison Blues (Johnny Cash)
TTITLE2=That's The Way Things Are (Richard March)
TTITLE3=Nobody Sleeps at My Place (Dix Bruce)
TTITLE4=Something I Don't Want To Know (Jim Nunally)
TTITLE5=Darling Will You Ever Think Of Me (Dix Bruce)
TTITLE6=Pretty Boy Floyd (Woody Guthrie)
TTITLE7=She's Gonna Say Bye Bye (Jim Nunally)
TTITLE8=Darling, You're a Fool (Dix Bruce)
TTITLE9=Home's Where I Long To Be (Jim Nunally)
TTITLE10=Sally Goodin
TTITLE11=Way Out in the Jungle (Mike Hall)
TTITLE12=When I Die (Dix Bruce)
EXTD=
EXTT0=
EXTT1=
EXTT2=
EXTT3=
EXTT4=
EXTT5=
EXTT6=
EXTT7=
EXTT8=
EXTT9=
EXTT10=
EXTT11=
EXTT12=
PLAYORDER=
